<?xml version="1.0" encoding="utf-8"?>
<!-- Generator: Adobe Illustrator 23.0.4, SVG Export Plug-In . SVG Version: 6.00 Build 0)  -->
<svg version="1.1" xmlns="http://www.w3.org/2000/svg" xmlns:xlink="http://www.w3.org/1999/xlink" x="0px" y="0px"
	 viewBox="0 0 160 144" style="enable-background:new 0 0 160 144;" xml:space="preserve">
<style type="text/css">
	.st0{display:none;}
</style>
<g id="Layer_2" class="st0">
</g>
<g id="Layer_1">
	<path d="M46.39,43.13h4.83v4.83l4.83,4.83h14.48l4.83-4.83v-4.83h-4.83v4.83H56.04v-4.83h9.65V38.3h-9.65v-4.83h9.65v-4.83h-9.65
		v-4.83h14.48v4.83h4.83v-4.83L70.52,19H56.04l-4.83,4.83v4.83h-4.83v4.83h4.83v4.83h-4.83V43.13z M104.3,130V52.78h28.96v-19.3
		h-14.48V19h-9.65v14.48h-9.65V19h-9.65v62.74H46.39v-19.3h-9.65V130h14.48v-14.48h38.61V130H104.3z"/>
</g>
</svg>
