<svg xmlns="http://www.w3.org/2000/svg" viewBox="0 0 250 100"><title>Artboard 8</title><g id="Layer_1" data-name="Layer 1"><path d="M40.89,27l15.81,8.6a.37.37,0,0,0,.5,0l14-7.59v7.09a.6.6,0,0,0,.64.63h1.89a.6.6,0,0,0,.64-.63V26.66a.93.93,0,0,0-.26-.5L57.46,16.92a.41.41,0,0,0-.51,0l-16.06,8.6A.84.84,0,0,0,40.89,27ZM52.27,39.56v1.9a.59.59,0,0,0,.63.63h8.22a.6.6,0,0,0,.64-.63v-1.9a.61.61,0,0,0-.64-.63H52.9A.6.6,0,0,0,52.27,39.56Zm9.49-3.16v1.9a.59.59,0,0,0,.63.63h1.9a.59.59,0,0,0,.63-.63V36.4a.59.59,0,0,0-.63-.63h-1.9A.59.59,0,0,0,61.76,36.4Zm-12.65,0v1.9a.59.59,0,0,0,.63.63h1.9a.59.59,0,0,0,.63-.63V36.4a.59.59,0,0,0-.63-.63h-1.9A.59.59,0,0,0,49.11,36.4Zm15.81-9.48v8.22a.59.59,0,0,0,.63.63h1.9a.59.59,0,0,0,.63-.63V26.92a.6.6,0,0,0-.63-.64h-1.9A.6.6,0,0,0,64.92,26.92Zm-19,0v8.22a.59.59,0,0,0,.63.63h1.9a.59.59,0,0,0,.63-.63V26.92a.6.6,0,0,0-.63-.64h-1.9A.6.6,0,0,0,46,26.92ZM181.92,56V59.8a1.19,1.19,0,0,0,1.26,1.27H187a1.19,1.19,0,0,0,1.26-1.27V56A1.19,1.19,0,0,0,187,54.74h-3.8A1.19,1.19,0,0,0,181.92,56Zm-53.76,25.3V85.1a1.19,1.19,0,0,0,1.27,1.26h13.28A1.19,1.19,0,0,0,144,85.1V81.31A1.19,1.19,0,0,0,142.71,80H129.43A1.2,1.2,0,0,0,128.16,81.31Zm-6.32-9.49v7A1.19,1.19,0,0,0,123.1,80h3.8a1.19,1.19,0,0,0,1.26-1.26v-7a1.19,1.19,0,0,0-1.26-1.27h-3.8A1.19,1.19,0,0,0,121.84,71.82Zm6.32-6.33v3.8a1.19,1.19,0,0,0,1.27,1.26h10.12a1.19,1.19,0,0,0,1.26-1.26v-3.8a1.2,1.2,0,0,0-1.26-1.26H129.43A1.2,1.2,0,0,0,128.16,65.49Zm12.65-6.32V85.1a1.19,1.19,0,0,0,1.27,1.26h3.79a1.19,1.19,0,0,0,1.27-1.26V59.17a1.19,1.19,0,0,0-1.27-1.26h-3.79A1.19,1.19,0,0,0,140.81,59.17ZM125,52.85v3.79a1.2,1.2,0,0,0,1.26,1.27h13.29a1.2,1.2,0,0,0,1.26-1.27V52.85a1.2,1.2,0,0,0-1.26-1.27H126.26A1.2,1.2,0,0,0,125,52.85ZM169.27,56V59.8a1.2,1.2,0,0,0,1.27,1.27h3.79a1.19,1.19,0,0,0,1.26-1.27V56a1.19,1.19,0,0,0-1.26-1.27h-3.79A1.2,1.2,0,0,0,169.27,56ZM218,48.42h16.44a1.2,1.2,0,0,0,1.27-1.27V43.36a1.2,1.2,0,0,0-1.27-1.27H218a1.2,1.2,0,0,0-1.27,1.27v3.79A1.2,1.2,0,0,0,218,48.42Zm19,37.94h3.8A1.19,1.19,0,0,0,242,85.1V49.68a1.19,1.19,0,0,0-1.26-1.26h-3.8a1.19,1.19,0,0,0-1.26,1.26V85.1A1.19,1.19,0,0,0,236.94,86.36ZM218,70.55h16.44a1.19,1.19,0,0,0,1.27-1.26v-3.8a1.2,1.2,0,0,0-1.27-1.26H218a1.2,1.2,0,0,0-1.27,1.26v3.8A1.19,1.19,0,0,0,218,70.55Zm-6.33,15.81h3.8a1.19,1.19,0,0,0,1.26-1.26V49.68a1.19,1.19,0,0,0-1.26-1.26h-3.8a1.19,1.19,0,0,0-1.26,1.26V85.1A1.19,1.19,0,0,0,211.64,86.36Zm-22.13,0h3.79a1.19,1.19,0,0,0,1.27-1.26V43.36a1.2,1.2,0,0,0-1.27-1.27h-3.79a1.2,1.2,0,0,0-1.27,1.27V85.1A1.19,1.19,0,0,0,189.51,86.36ZM176.86,70.55h3.79a1.19,1.19,0,0,0,1.27-1.26v-7a1.19,1.19,0,0,0-1.27-1.26h-3.79a1.19,1.19,0,0,0-1.27,1.26v7A1.19,1.19,0,0,0,176.86,70.55ZM164.21,86.36H168a1.19,1.19,0,0,0,1.26-1.26V43.36A1.2,1.2,0,0,0,168,42.09h-3.8A1.19,1.19,0,0,0,163,43.36V85.1A1.19,1.19,0,0,0,164.21,86.36Zm-72.73,0h19.61a1.19,1.19,0,0,0,1.26-1.26V81.31A1.19,1.19,0,0,0,111.09,80H97.81a1.2,1.2,0,0,1-1.27-1.26V43.36a1.2,1.2,0,0,0-1.26-1.27h-3.8a1.19,1.19,0,0,0-1.26,1.27V85.1A1.19,1.19,0,0,0,91.48,86.36Zm-63.24,0h7a1.19,1.19,0,0,0,1.27-1.26v-7a1.19,1.19,0,0,1,1.26-1.26H60.49a1.19,1.19,0,0,1,1.27,1.26v7A1.19,1.19,0,0,0,63,86.36h7a1.19,1.19,0,0,0,1.26-1.26V43.36A1.19,1.19,0,0,0,70,42.09h-3.8a1.19,1.19,0,0,0-1.26,1.27V53.48a1.19,1.19,0,0,1-1.27,1.26H37.72a1.19,1.19,0,0,1-1.26-1.26V14.9a1.19,1.19,0,0,0-1.27-1.26H31.4a1.19,1.19,0,0,0-1.26,1.26v7a1.19,1.19,0,0,1-1.27,1.26H25.08a1.19,1.19,0,0,1-1.27-1.26v-7a1.19,1.19,0,0,0-1.26-1.26h-3.8a1.19,1.19,0,0,0-1.26,1.26v7a1.19,1.19,0,0,1-1.27,1.26h-7A1.2,1.2,0,0,0,8,24.39V34.51a1.2,1.2,0,0,0,1.26,1.26H25.71A1.19,1.19,0,0,1,27,37V85.1A1.19,1.19,0,0,0,28.24,86.36Z"/></g></svg>